<svg id="Activity" xmlns="http://www.w3.org/2000/svg" width="21.585" height="22" viewBox="0 0 21.585 22">
  <g id="Path_33966" transform="translate(4.682 7.981)">
    <path id="Path_33966-border" d="M.305,6.73A.806.806,0,0,1,.163,5.613L1.4,6.585a.771.771,0,0,1-1.1.145ZM.163,5.613l3.12-4.135a.777.777,0,0,1,.523-.3.769.769,0,0,1,.58.164L7.327,3.693,9.9.309A.772.772,0,0,1,11,.167a.807.807,0,0,1,.139,1.118L8.081,5.3a.778.778,0,0,1-.523.3.769.769,0,0,1-.579-.164L4.041,3.089,1.4,6.585ZM3.9,1.965h0l-.62-.486Z" transform="translate(0 0)" fill="#aba5a2"/>
  </g>
  <g id="Ellipse_741" transform="translate(16.013 0)">
    <path id="Ellipse_741-border" d="M2.786,4.085A1.234,1.234,0,0,0,4.008,2.84H5.572a2.813,2.813,0,0,1-2.786,2.84ZM0,2.84H1.563A1.234,1.234,0,0,0,2.786,4.085V5.679A2.813,2.813,0,0,1,0,2.84Zm4.008,0a1.223,1.223,0,1,0-2.445,0H0A2.813,2.813,0,0,1,2.786,0,2.813,2.813,0,0,1,5.572,2.84Z" transform="translate(0)" fill="#aba5a2"/>
  </g>
  <g id="Path" transform="translate(0 0.893)">
    <path id="Path-border" d="M5.889,21.107a5.676,5.676,0,0,1-4.325-1.785A6.533,6.533,0,0,1,0,14.853V6.264A6.529,6.529,0,0,1,1.58,1.789,5.669,5.669,0,0,1,5.889,0V1.593A4.122,4.122,0,0,0,2.731,2.872,4.932,4.932,0,0,0,1.569,6.264v8.589a4.932,4.932,0,0,0,1.148,3.388,4.126,4.126,0,0,0,3.172,1.272h9a4.127,4.127,0,0,0,3.159-1.274,4.915,4.915,0,0,0,1.16-3.386h1.57a6.52,6.52,0,0,1-1.58,4.471,5.68,5.68,0,0,1-4.309,1.783Zm13.321-6.254V7.372a.785.785,0,1,1,1.57,0v7.481ZM13.492,0a.791.791,0,0,1,.784.8.791.791,0,0,1-.784.8Zm-7.6,1.593V0h7.6V1.593Z" fill="#aba5a2"/>
  </g>
</svg>
